<?xml version="1.0" encoding="utf-8"?>
<!-- Generator: Adobe Illustrator 25.3.1, SVG Export Plug-In . SVG Version: 6.00 Build 0)  -->
<svg version="1.1" id="图层_1" xmlns="http://www.w3.org/2000/svg" xmlns:xlink="http://www.w3.org/1999/xlink" x="0px" y="0px"
	 viewBox="0 0 465.8 263.6" style="enable-background:new 0 0 465.8 263.6;" xml:space="preserve">
<style type="text/css">
	.st0{fill:url(#SVGID_1_);}
	.st1{fill:url(#SVGID_2_);}
</style>
<linearGradient id="SVGID_1_" gradientUnits="userSpaceOnUse" x1="135.229" y1="-87.2464" x2="255.5168" y2="-295.5826" gradientTransform="matrix(1 0 0 -1 -56.16 9.94)">
	<stop  offset="0" style="stop-color:#FF7BAA"/>
	<stop  offset="6.000000e-02" style="stop-color:#FD73A6"/>
	<stop  offset="0.32" style="stop-color:#F75297"/>
	<stop  offset="0.57" style="stop-color:#F23A8D"/>
	<stop  offset="0.8" style="stop-color:#EF2C86"/>
	<stop  offset="1" style="stop-color:#EE2784"/>
</linearGradient>
<path class="st0" d="M158.1,79.5c43.7,38.5,79.6,103.4,114.9,181.7c0.4,0.9,0,1.9-0.9,2.3c-0.2,0.1-0.5,0.2-0.8,0.2
	C170.2,258.5,87.8,205.5,0.8,145.2c-0.8-0.5-1-1.6-0.4-2.4c0.3-0.4,0.7-0.7,1.2-0.7c47.8-4.3,98.9-24.6,154.4-62.8
	C156.6,78.9,157.5,78.9,158.1,79.5z"/>
<linearGradient id="SVGID_2_" gradientUnits="userSpaceOnUse" x1="-314.7747" y1="504.0349" x2="-103.6446" y2="569.275" gradientTransform="matrix(0.38 -1.3 1.04 0.28 -94.6456 -261.9092)">
	<stop  offset="0" style="stop-color:#00A89C"/>
	<stop  offset="1" style="stop-color:#0366A3"/>
</linearGradient>
<path class="st1" d="M465.3,162.5c-41.7,40.8-109.1,71.6-189.8,101c-0.9,0.3-1.9-0.1-2.2-1c-0.1-0.3-0.1-0.5-0.1-0.8
	c12.6-100.5,71.7-178.8,138.3-261c0.6-0.7,1.7-0.9,2.4-0.3c0.4,0.3,0.6,0.8,0.6,1.3c0.7,48,17.2,100.5,51,158.7
	C466,161.1,465.9,161.9,465.3,162.5z"/>
</svg>
